HIERARCHY
ROOT Hips
{
	OFFSET -0.001795 -0.223333 0.028219
	CHANNELS 6 Xposition Yposition Zposition Zrotation Yrotation Xrotation 
	JOINT LeftUpLeg
	{
		OFFSET 0.069520 -0.091406 -0.006815
		CHANNELS 3 Zrotation Yrotation Xrotation
		JOINT LeftLeg
		{
			OFFSET 0.034277 -0.375199 -0.004496
			CHANNELS 3 Zrotation Yrotation Xrotation
			JOINT LeftFoot
			{
				OFFSET -0.013596 -0.397961 -0.043693
				CHANNELS 3 Zrotation Yrotation Xrotation
				JOINT LeftToe
				{
					OFFSET 0.026358 -0.055791 0.119288
					CHANNELS 3 Zrotation Yrotation Xrotation
					End Site
					{
						OFFSET 0.000000 0.000000 0.000000
					}
				}
			}
		}
	}
	JOINT RightUpLeg
	{
		OFFSET -0.067670 -0.090522 -0.004320
		CHANNELS 3 Zrotation Yrotation Xrotation
		JOINT RightLeg
		{
			OFFSET -0.038290 -0.382569 -0.008850
			CHANNELS 3 Zrotation Yrotation Xrotation
			JOINT RightFoot
			{
				OFFSET 0.015774 -0.398415 -0.042312
				CHANNELS 3 Zrotation Yrotation Xrotation
				JOINT RightToe
				{
					OFFSET -0.025372 -0.048144 0.123348
					CHANNELS 3 Zrotation Yrotation Xrotation
					End Site
					{
						OFFSET 0.000000 0.000000 0.000000
					}
				}
			}
		}
	}
	JOINT Spine
	{
		OFFSET -0.002533 0.108963 -0.026696
		CHANNELS 3 Zrotation Yrotation Xrotation
		JOINT Spine1
		{
			OFFSET 0.005487 0.135180 0.001092
			CHANNELS 3 Zrotation Yrotation Xrotation
			JOINT Spine2
			{
				OFFSET 0.001457 0.052922 0.025425
				CHANNELS 3 Zrotation Yrotation Xrotation
				JOINT Neck
				{
					OFFSET -0.002778 0.213870 -0.042857
					CHANNELS 3 Zrotation Yrotation Xrotation
					JOINT Head
					{
						OFFSET 0.005152 0.064970 0.051349
						CHANNELS 3 Zrotation Yrotation Xrotation
						End Site
						{
							OFFSET 0.000000 0.000000 0.000000
						}
					}
				}
				JOINT LeftShoulder
				{
					OFFSET 0.078845 0.121749 -0.034090
					CHANNELS 3 Zrotation Yrotation Xrotation
					JOINT LeftArm
					{
						OFFSET 0.090977 0.030469 -0.008868
						CHANNELS 3 Zrotation Yrotation Xrotation
						JOINT LeftForeArm
						{
							OFFSET 0.259612 -0.012772 -0.027456
							CHANNELS 3 Zrotation Yrotation Xrotation
							JOINT LeftHand
							{
								OFFSET 0.249234 0.008986 -0.001171
								CHANNELS 3 Zrotation Yrotation Xrotation
								End Site
								{
									OFFSET 0.000000 0.000000 0.000000
								}
							}
						}
					}
				}
				JOINT RightShoulder
				{
					OFFSET -0.081759 0.118833 -0.038615
					CHANNELS 3 Zrotation Yrotation Xrotation
					JOINT RightArm
					{
						OFFSET -0.096012 0.032551 -0.009143
						CHANNELS 3 Zrotation Yrotation Xrotation
						JOINT RightForeArm
						{
							OFFSET -0.253742 -0.013329 -0.021401
							CHANNELS 3 Zrotation Yrotation Xrotation
							JOINT RightHand
							{
								OFFSET -0.255298 0.007772 -0.005559
								CHANNELS 3 Zrotation Yrotation Xrotation
								End Site
								{
									OFFSET 0.000000 0.000000 0.000000
								}
							}
						}
					}
				}
			}
		}
	}
}
MOTION
Frames: 10
Frame Time: 0.050000
0.000000 0.920922 0.000000 -0.506808 5.348078 -4.261297 -0.338173 0.242323 2.742249 -5.231095 0.470568 20.571523 9.686319 19.286445 0.680621 0.000000 0.000000 0.000000 -1.281278 1.744833 -21.679289 3.120813 -0.339656 12.962199 -5.126063 -13.864432 12.353908 0.000000 0.000000 0.000000 6.607323 -1.211824 11.821167 -6.265927 2.408198 -20.226271 -6.538866 -1.754559 33.022367 15.197214 -9.038045 -21.047676 0.000000 0.000000 0.000000 -8.581736 -1.717116 0.327651 -55.369674 2.097882 -10.688969 -48.417021 -30.897781 16.848304 0.000000 0.000000 0.000000 9.733618 -17.995506 -8.687202 37.821709 -33.576278 -14.605149 58.850441 16.279947 9.369998 0.000000 0.000000 0.000000 
0.000233 0.923067 -0.037550 -1.619819 4.419236 -4.013602 1.090994 0.097339 1.440113 -6.557296 0.896615 18.682086 11.263183 22.241815 0.296303 0.000000 0.000000 0.000000 -0.234949 2.115192 -23.227495 2.956743 -0.273989 11.165220 -4.936608 -13.582048 11.892218 0.000000 0.000000 0.000000 6.916329 -1.195164 11.429016 -6.125455 2.362584 -19.760899 -5.278605 -1.284251 32.508495 14.607233 -8.316131 -21.801467 0.000000 0.000000 0.000000 -8.304580 -3.323124 1.000654 -53.234356 1.107382 -9.736140 -50.731630 -30.642116 17.304390 0.000000 0.000000 0.000000 5.273990 -19.485312 -8.438190 38.906416 -36.107892 -15.659513 61.270199 10.593799 6.106412 0.000000 0.000000 0.000000 
0.000049 0.925933 -0.074159 -1.895573 2.006574 -4.575323 1.302418 0.093743 1.308091 -7.575416 1.261386 16.395869 12.382801 24.511940 0.689288 0.000000 0.000000 0.000000 -0.392517 2.171431 -22.959574 4.448465 -0.554292 14.029663 -6.138578 -15.830006 8.482822 0.000000 0.000000 0.000000 8.029950 -1.216612 11.089750 -6.410911 2.466634 -18.225151 -6.924983 -1.419742 32.734466 11.702475 -6.514746 -22.213953 0.000000 0.000000 0.000000 -10.433759 -3.040033 1.072271 -51.256728 0.994031 -9.417743 -44.689836 -35.431681 17.899860 0.000000 0.000000 0.000000 4.370642 -18.867271 -7.995460 36.493877 -35.420819 -14.595163 64.260305 9.830317 5.341037 0.000000 0.000000 0.000000 
0.000175 0.927389 -0.109216 -1.686184 -0.486292 -4.925637 0.157234 0.035993 0.397258 -8.036334 1.514774 16.187655 13.497158 26.799860 0.776447 0.000000 0.000000 0.000000 -0.543689 2.417306 -24.616960 5.407920 -0.748466 22.755820 -6.986815 -17.526906 6.046185 0.000000 0.000000 0.000000 8.323041 -1.274349 11.788537 -7.277471 2.574696 -20.615554 -6.692802 -0.763421 35.510471 10.616096 -5.993832 -22.847897 0.000000 0.000000 0.000000 -10.191799 -3.112873 1.316745 -50.075023 1.132403 -9.550316 -45.885228 -34.508407 18.159925 0.000000 0.000000 0.000000 3.598455 -18.961969 -7.905936 34.463344 -33.131473 -13.376879 68.283733 9.151791 4.917239 0.000000 0.000000 0.000000 
0.000246 0.930079 -0.144138 -1.972034 -2.673273 -5.243146 0.763071 -0.123923 -1.524337 -7.949350 1.583912 15.473268 14.124810 27.642226 3.715630 0.000000 0.000000 0.000000 -0.874798 2.408188 -24.170666 5.341120 -0.527067 29.865508 -6.782003 -17.144563 5.050487 0.000000 0.000000 0.000000 8.584481 -1.315953 12.344451 -6.619223 2.402066 -19.225353 -7.399350 0.010584 33.614698 10.460232 -6.280746 -20.345559 0.000000 0.000000 0.000000 -11.424671 -3.274674 1.431447 -48.257389 1.831279 -9.315305 -44.153395 -34.899773 17.526593 0.000000 0.000000 0.000000 4.066467 -17.337817 -7.272388 34.775482 -32.055739 -13.226018 72.047961 10.818125 6.409795 0.000000 0.000000 0.000000 
0.000052 0.931769 -0.178849 -1.852473 -5.107403 -5.287954 0.452012 -0.261409 -3.050913 -7.697550 1.601389 14.440264 14.447185 28.082737 5.144871 0.000000 0.000000 0.000000 -0.963313 2.313078 -22.536886 4.719473 0.205188 36.763241 -6.555001 -16.661752 4.088022 0.000000 0.000000 0.000000 8.700019 -1.245178 12.015806 -7.099331 2.481648 -19.461841 -6.878267 1.574655 33.981164 11.623041 -7.104698 -20.252209 0.000000 0.000000 0.000000 -10.395605 -3.569585 1.560710 -48.560058 2.102025 -9.482875 -41.964107 -34.152247 16.282087 0.000000 0.000000 0.000000 3.709335 -16.844904 -6.965642 34.949886 -30.229608 -12.886782 76.640063 12.831867 8.752563 0.000000 0.000000 0.000000 
-0.000909 0.932843 -0.213643 -1.355021 -6.575532 -5.629832 0.550821 -0.375161 -4.446109 -8.248531 1.791390 13.838590 14.843375 28.215913 7.865277 0.000000 0.000000 0.000000 -2.444880 1.835781 -20.011560 5.285699 0.489145 42.924948 -6.593117 -16.613218 3.004381 0.000000 0.000000 0.000000 7.955538 -1.175854 12.378982 -6.452428 2.262037 -19.337165 -6.623072 2.178196 33.230766 11.692463 -7.230008 -19.784943 0.000000 0.000000 0.000000 -10.701207 -2.688613 1.195440 -47.443438 2.717940 -9.441504 -41.293764 -34.980492 16.413741 0.000000 0.000000 0.000000 3.252962 -16.597329 -6.744899 34.326531 -27.307179 -11.871333 82.569920 16.331138 12.825296 0.000000 0.000000 0.000000 
-0.003553 0.934682 -0.248426 -1.207454 -8.121199 -5.188330 1.369826 -0.472363 -6.366730 -8.371596 1.820649 12.562606 14.416224 27.050467 10.162398 0.000000 0.000000 0.000000 -3.399303 1.413502 -16.623174 5.458321 1.045263 47.697051 -5.560367 -14.147127 1.926950 0.000000 0.000000 0.000000 7.823967 -1.081215 11.641110 -6.294646 2.198345 -18.486622 -5.636813 3.320266 31.253519 11.134950 -6.577533 -20.040766 0.000000 0.000000 0.000000 -9.348363 -1.784676 0.691612 -47.853967 4.495283 -9.905428 -41.200360 -33.709169 15.643084 0.000000 0.000000 0.000000 3.101101 -16.809354 -6.764023 33.475043 -24.339238 -10.663963 86.237853 21.001257 18.394870 0.000000 0.000000 0.000000 
-0.008307 0.934965 -0.283903 -0.769494 -8.842239 -5.050639 1.720988 -0.570600 -8.220602 -8.220136 1.703943 10.833922 14.107158 26.146782 12.111820 0.000000 0.000000 0.000000 -4.654972 0.890475 -11.663224 4.634811 1.914804 50.084955 -4.436505 -11.269191 0.930597 0.000000 0.000000 0.000000 7.156065 -0.988099 11.313084 -5.606271 1.952442 -19.001498 -4.414575 4.962254 31.297451 11.212256 -6.289173 -20.720322 0.000000 0.000000 0.000000 -8.071389 -0.423046 -0.015560 -47.157210 6.214995 -10.345835 -43.994976 -32.643990 15.931208 0.000000 0.000000 0.000000 3.226472 -17.583018 -7.091751 33.847338 -21.415155 -10.029452 88.767719 24.736787 23.807972 0.000000 0.000000 0.000000 
-0.015813 0.933218 -0.321991 -0.203399 -9.660460 -5.171043 3.066980 -0.548778 -10.366956 -9.443765 1.952241 9.684158 13.573470 24.842046 14.583331 0.000000 0.000000 0.000000 -5.251832 0.423918 -4.723345 2.734413 2.826417 46.310980 -2.784967 -7.062573 0.346649 0.000000 0.000000 0.000000 7.087775 -0.881350 10.298018 -4.947424 1.742755 -18.163911 -3.884688 6.858156 30.777681 10.971199 -5.989492 -19.923533 0.000000 0.000000 0.000000 -6.350773 0.289047 -0.379501 -47.913075 9.128380 -11.518474 -45.023276 -32.563231 16.022500 0.000000 0.000000 0.000000 4.852131 -16.714727 -7.022004 33.418430 -17.455785 -8.935396 91.469729 30.980907 32.640849 0.000000 0.000000 0.000000 
